# xmcd
#
# Track frame offsets: 
#        150
#        13650
#        27694
#        40108
#        57060
#        72622
#        86722
#        100775
#        128557
#
# Disc length: 1934 seconds
#
# Revision: 0
# Processed by: cddbd v1.5.1PL0 Copyright (c) Steve Scherf et al.
# Submitted via: ExactAudioCopy v0.95a5
#
DISCID=74078c09
DTITLE=Joe Liggins - The Essential Recordings
DYEAR=2001
DGENRE=Blues
TTITLE0=The Honeydripper (Pt 1)
TTITLE1=The Honeydripper (Pt 2)
TTITLE2=Pink Champagne
TTITLE3=Boom-Chick-A-Boogie
TTITLE4=Goin' Back To L.A.
TTITLE5=I've Got A Right To Cry
TTITLE6=Tanya
TTITLE7=Stinky
TTITLE8=Brown Angel
EXTD=
EXTT0=
EXTT1=
EXTT2=
EXTT3=
EXTT4=
EXTT5=
EXTT6=
EXTT7=
EXTT8=
PLAYORDER=
